<?xml version="1.0" encoding="utf-8"?>
<!-- Generator: Adobe Illustrator 19.1.1, SVG Export Plug-In . SVG Version: 6.00 Build 0)  -->
<svg version="1.1" id="Vector_Graphics" xmlns="http://www.w3.org/2000/svg" xmlns:xlink="http://www.w3.org/1999/xlink" x="0px"
	 y="0px" viewBox="0 0 500 140" style="enable-background:new 0 0 500 140;" xml:space="preserve">
<style type="text/css">
	.st0{fill-rule:evenodd;clip-rule:evenodd;fill:#EC2224;}
	.st1{fill:#FF0000;}
</style>
<g>
	<path class="st0" d="M-217.8-50c41.3,17,87,6.9,117.3-22.2c0.7-0.7,1.1-1.6,1.1-2.6c0-2.1-1.7-3.9-3.9-3.9c-0.9,0-1.7,0.3-2.3,0.8
		c-28.1,27.1-70.7,36.7-109.2,20.8c-51.7-21.3-76.3-80.5-55-132.1c21.3-51.6,80.6-76.2,132.3-54.9c12.1,4.9,22.7,11.9,31.5,20.4
		c0.7,0.5,1.5,0.8,2.3,0.8c2.1,0,3.9-1.7,3.9-3.9c0-1-0.3-1.9-1-2.6c-9.5-9.1-20.9-16.6-33.8-21.9c-55.6-23-119.4,3.5-142.3,59
		C-300-136.5-273.4-72.9-217.8-50L-217.8-50z M-146.9-85.6c-4.2,0-7.7-3.4-7.7-7.7c0-4.2,3.5-7.7,7.7-7.7c4.2,0,7.7,3.5,7.7,7.7
		C-139.2-89-142.6-85.6-146.9-85.6L-146.9-85.6z M-157.4-66.9c-4.2,0-7.7-3.5-7.7-7.7c0-4.3,3.5-7.7,7.7-7.7c4.2,0,7.7,3.4,7.7,7.7
		C-149.7-70.4-153.2-66.9-157.4-66.9L-157.4-66.9z M-160.6-106.7c-3.3,0-6-2.7-6-5.9c0-3.3,2.7-5.9,6-5.9c3.3,0,5.9,2.6,5.9,5.9
		C-154.7-109.4-157.4-106.7-160.6-106.7L-160.6-106.7z M-194-82.1c-4.2,0-7.7-3.5-7.7-7.7c0-4.3,3.5-7.7,7.7-7.7
		c4.3,0,7.7,3.4,7.7,7.7C-186.3-85.5-189.7-82.1-194-82.1L-194-82.1z M-217-78.3c-4.3,0-7.7-3.4-7.7-7.7c0-4.2,3.4-7.7,7.7-7.7
		c4.2,0,7.7,3.5,7.7,7.7C-209.4-81.7-212.8-78.3-217-78.3L-217-78.3z M-192.1-107.2c-3.3,0-5.9-2.7-5.9-5.9c0-3.3,2.7-6,5.9-6
		c3.3,0,6,2.7,6,6C-186.1-109.9-188.8-107.2-192.1-107.2L-192.1-107.2z M-253.6-129c-3.3,0-6-2.6-6-5.9c0-3.3,2.7-5.9,6-5.9
		c3.3,0,5.9,2.6,5.9,5.9C-247.7-131.6-250.3-129-253.6-129L-253.6-129z M-222.5-128.3c-3.3,0-6-2.6-6-5.9c0-3.2,2.6-5.9,6-5.9
		c3.3,0,5.9,2.6,5.9,5.9C-216.6-131-219.2-128.3-222.5-128.3L-222.5-128.3z M-241.5-106.9c-4.3,0-7.7-3.5-7.7-7.7
		c0-4.3,3.4-7.7,7.7-7.7c4.2,0,7.7,3.4,7.7,7.7C-233.8-110.3-237.3-106.9-241.5-106.9L-241.5-106.9z M-216.9-158.1
		c-4.3,0-7.7-3.4-7.7-7.7c0-4.2,3.4-7.7,7.7-7.7c4.2,0,7.7,3.5,7.7,7.7C-209.2-161.5-212.6-158.1-216.9-158.1L-216.9-158.1z
		 M-243.2-184.3c-3.3,0-5.9-2.6-5.9-5.9c0-3.3,2.6-5.9,5.9-5.9c3.3,0,5.9,2.6,5.9,5.9C-237.3-187-239.9-184.3-243.2-184.3
		L-243.2-184.3z M-243.4-157.3c-4.2,0-7.7-3.5-7.7-7.7c0-4.3,3.5-7.7,7.7-7.7c4.3,0,7.7,3.4,7.7,7.7
		C-235.7-160.7-239.1-157.3-243.4-157.3L-243.4-157.3z M-142-202.3c-4.3,0-7.7-3.5-7.7-7.7c0-4.3,3.4-7.7,7.7-7.7
		c4.2,0,7.7,3.4,7.7,7.7C-134.4-205.7-137.8-202.3-142-202.3L-142-202.3z M-160.3-189c-3.3,0-5.9-2.6-5.9-5.9c0-3.2,2.7-5.9,5.9-5.9
		c3.3,0,5.9,2.7,5.9,5.9C-154.4-191.6-157.1-189-160.3-189L-160.3-189z M-160.2-219.7c-4.3,0-7.7-3.5-7.7-7.7c0-4.3,3.4-7.7,7.7-7.7
		c4.2,0,7.7,3.4,7.7,7.7C-152.5-223.1-155.9-219.7-160.2-219.7L-160.2-219.7z M-195-182.7c-3.3,0-5.9-2.6-5.9-5.9
		c0-3.3,2.6-5.9,5.9-5.9c3.3,0,5.9,2.6,5.9,5.9C-189-185.4-191.7-182.7-195-182.7L-195-182.7z M-194.1-203.8c-4.2,0-7.7-3.5-7.7-7.7
		c0-4.3,3.5-7.7,7.7-7.7c4.2,0,7.7,3.4,7.7,7.7C-186.4-207.3-189.9-203.8-194.1-203.8L-194.1-203.8z M-217.6-208.5
		c-3.3,0-5.9-2.6-5.9-5.9c0-3.3,2.7-5.9,5.9-5.9c3.3,0,5.9,2.6,5.9,5.9C-211.6-211.1-214.3-208.5-217.6-208.5L-217.6-208.5z
		 M-182.4-135.6c-3.1-1.3-5.2,0.5-7.4,2.7l-44.4,44.5c-4.2,4.2-5.7,9.3,0.2,12.8c7.1,4.3,14.5,8.2,22.2,11.3
		c7.7,3.2,15.7,5.7,23.8,7.6c6.6,1.5,9.2-3,9.2-9l0-62.8C-179-131.6-179.2-134.3-182.4-135.6L-182.4-135.6z M-170-135.6
		c3.2-1.3,5.2,0.5,7.4,2.7l44.5,44.4c4.3,4.3,5.6,9.3-0.1,12.9c-7.1,4.4-14.5,8.2-22.2,11.4c-7.7,3.2-15.6,5.7-23.7,7.7
		c-6.6,1.6-9.2-3-9.2-9l-0.1-62.8C-173.3-131.6-173.1-134.3-170-135.6L-170-135.6z M-182.4-165.6c3.2-1.3,3.4-4,3.4-7.1l-0.1-62.8
		c0-6-2.6-10.6-9.2-9c-8.1,1.9-16.1,4.4-23.8,7.6c-7.7,3.2-15.1,7.1-22.1,11.4c-5.8,3.6-4.4,8.6-0.1,12.9l44.5,44.4
		C-187.6-166-185.5-164.2-182.4-165.6L-182.4-165.6z M-191.2-156.8c1.3-3.1-0.5-5.2-2.7-7.4l-44.5-44.4c-4.3-4.3-9.3-5.7-12.9,0.1
		c-4.4,7.1-8.2,14.5-11.4,22.1c-3.2,7.7-5.7,15.7-7.6,23.7c-1.6,6.6,3,9.1,9.1,9.1l62.9-0.1C-195.2-153.4-192.5-153.6-191.2-156.8
		L-191.2-156.8z M-191.2-144.4c-1.3-3.1-4-3.3-7.1-3.3l-62.9,0c-6,0-10.6,2.6-9,9.2c1.9,8.1,4.4,16,7.6,23.7
		c3.2,7.7,7,15.1,11.4,22.2c3.6,5.7,8.6,4.4,12.9,0.1l44.4-44.5C-191.7-139.2-189.9-141.2-191.2-144.4L-191.2-144.4z M-170-165.6
		c-3.1-1.3-3.3-4-3.3-7.1l-0.1-62.8c0-6,2.6-10.6,9.2-9c8.1,1.9,16,4.4,23.7,7.6c7.7,3.1,15.1,7,22.2,11.3c5.8,3.6,4.4,8.6,0.1,12.9
		l-44.4,44.5C-164.8-166-166.9-164.2-170-165.6L-170-165.6z"/>
</g>
<g>
	<g>
		<path class="st1" d="M64.3,115.9c10,7.4,24.2,11.9,40.8,12v7.2c-19.7-0.2-36-5.6-47.3-14.3L64.3,115.9z"/>
		<path class="st1" d="M153.7,121.2c-11.3,8.5-27.4,13.8-46.8,13.9V128c16.3-0.2,30.3-4.5,40.3-11.7L153.7,121.2z"/>
		<path class="st1" d="M12.7,34.8H3.9c1.2-10.6,6.6-20.2,15.5-27.7c3-2.5,7.4-2.6,10.5-0.2l1.5,1.2C21,14.5,14.2,23.8,12.7,34.8z"/>
		<path class="st1" d="M69.8,46.5c9.8-4.5,21.6-7.1,35.3-7.2v7.2c-13.4,0.1-25.3,3.1-34.6,8.1L69.8,46.5z"/>
		<path class="st1" d="M141.8,54.8c-9.4-5.2-21.4-8.2-35-8.3v-7.2c16.7,0.1,30.8,4,41.7,10.5L141.8,54.8z"/>
		<path class="st1" d="M143.5,55.8l6.6-5c12.3,7.9,19.9,19.2,21.4,32h-8.8C161.2,71.6,154.2,62.2,143.5,55.8z"/>
		<path class="st1" d="M155.1,120.1l-6.5-4.9c9.1-7.1,14.4-16.8,14.4-27.9c0-0.9,0-1.8-0.1-2.7h8.7c0.1,0.9,0.1,1.8,0.1,2.7
			C171.7,99.9,165.7,111.5,155.1,120.1z"/>
		<path class="st1" d="M94.7,115.7c0-1.8,2-3.2,4.8-3.2c2.8,0,4.8,1.3,4.8,3.2c0,1.8-2,3.2-4.8,3.2
			C96.7,118.9,94.7,117.5,94.7,115.7z"/>
		<path class="st1" d="M86.5,86.9c0,1.2-1.4,2-3.2,2c-1.9,0-3.2-0.8-3.2-2c0-1.2,1.3-2,3.2-2C85.1,84.9,86.5,85.8,86.5,86.9z"/>
		<path class="st1" d="M118.9,95.3c-3.8,0-6.6,2.1-6.6,5c0,2.9,2.8,5,6.6,5c3.8,0,6.6-2.1,6.6-5c0-0.1,0-0.3,0-0.4l20.1,15.3
			c-9.6,6.8-23.2,10.9-38.8,11v-9.1c1.1,1.2,3,2,5.4,2c3.9,0,6.5-2.1,6.5-4.6c0-2.5-2.5-4.6-6.5-4.6c-2.4,0-4.3,0.8-5.4,2V85.6
			l12.7,9.7C119.4,95.3,119.1,95.3,118.9,95.3z"/>
		<path class="st1" d="M86,99.4C86,99.5,86,99.5,86,99.4c0,2.6,2.5,4.6,6.5,4.6c3.9,0,6.5-2.1,6.5-4.6c0-2.5-2.6-4.6-6.5-4.6
			c-0.2,0-0.3,0-0.5,0L105,85v27.8c-1.2-1.3-3.1-2.1-5.5-2.1c-3.9,0-6.6,2.1-6.6,5c0,2.9,2.8,5,6.6,5c2.4,0,4.4-0.8,5.5-2.1v7.6
			c-15.9-0.2-29.6-4.4-39.3-11.4L86,99.4z"/>
		<path class="st1" d="M118.9,103.4c-2.8,0-4.8-1.3-4.8-3.2c0-1.8,2-3.2,4.8-3.2c2.8,0,4.8,1.3,4.8,3.2
			C123.8,102.1,121.7,103.4,118.9,103.4z"/>
		<path class="st1" d="M120.2,86.9c0-1.2,1.4-2,3.2-2c1.9,0,3.2,0.8,3.2,2c0,1.2-1.3,2-3.2,2C121.6,88.9,120.2,88.1,120.2,86.9z"/>
		<path class="st1" d="M141.1,67.2c0,1.8-2,3.2-4.8,3.2c-2.8,0-4.8-1.3-4.8-3.2c0-1.8,2-3.2,4.8-3.2C139.1,64,141.1,65.3,141.1,67.2
			z"/>
		<path class="st1" d="M47.4,26c-1.9,0-3.2-0.8-3.2-2c0-1.2,1.3-2,3.2-2c1.9,0,3.2,0.8,3.2,2C50.6,25.2,49.3,26,47.4,26z"/>
		<path class="st1" d="M126.4,66.5c0-0.2,0-0.4,0-0.5c0-2.5-2.5-4.6-6.5-4.6c-3.9,0-6.5,2.1-6.5,4.6c0,2.5,2.5,4.6,6.5,4.6
			c0.4,0,0.8,0,1.2-0.1l-14.4,10.9V57.4c0.9,0.6,2.1,1,3.4,1c2.9,0,5-1.6,5-3.8c0-2.2-2.1-3.8-5-3.8c-1.4,0-2.5,0.4-3.4,1v-3.5
			c12.9,0.1,24.4,2.9,33.4,7.7L126.4,66.5z"/>
		<path class="st1" d="M101.2,71.7c0-2.2-2.1-3.8-5-3.8c-2.8,0-4.9,1.5-5,3.6l-20-15.2c9.1-4.9,20.7-7.8,33.9-8v4.9
			c-1-1.4-3.1-2.3-5.7-2.3c-3.9,0-6.5,2.1-6.5,4.6c0,2.5,2.6,4.6,6.5,4.6c2.6,0,4.7-0.9,5.7-2.3V82l-8.6-6.5
			C99.2,75.4,101.2,73.8,101.2,71.7z"/>
		<path class="st1" d="M96.2,69.6c1.9,0,3.2,0.8,3.2,2c0,1.2-1.4,2-3.2,2c-1.9,0-3.2-0.8-3.2-2C93,70.5,94.3,69.6,96.2,69.6z"/>
		<path class="st1" d="M119.5,84.5c-0.7,0.6-1,1.5-1,2.4c0,2.2,2.1,3.8,5,3.8c2.9,0,5-1.6,5-3.8c0-0.9-0.4-1.8-1-2.4h33.7
			c0.1,0.9,0.1,1.8,0.1,2.7c0,10.7-5.2,20-14.1,26.8l-7.9-6c0.7,0.2,1.5,0.3,2.3,0.3c3.9,0,6.5-2.1,6.5-4.6c0-2.5-2.5-4.6-6.5-4.6
			c-3.9,0-6.5,2.1-6.5,4.6c0,0.5,0.1,0.9,0.3,1.4l-27-20.5H119.5z"/>
		<path class="st1" d="M151.7,74.4c0-1.2,1.3-2,3.2-2c1.9,0,3.2,0.8,3.2,2c0,1.2-1.3,2-3.2,2C153,76.4,151.7,75.5,151.7,74.4z"/>
		<path class="st1" d="M156.6,70.7c-0.5-0.1-1.1-0.2-1.7-0.2c-2.9,0-5,1.6-5,3.8c0,2.2,2.1,3.8,5,3.8c2,0,3.6-0.7,4.4-1.9
			c0.8,2.1,1.3,4.2,1.6,6.5h-23.3c1.8-0.8,2.9-2.2,2.9-3.9c0-2.5-2.5-4.6-6.5-4.6c-3.9,0-6.5,2.1-6.5,4.6c0,1.6,1.1,3.1,2.9,3.9H108
			l21.8-16.5c-0.1,0.3-0.1,0.6-0.1,1c0,2.9,2.8,5,6.6,5c3.9,0,6.6-2.1,6.6-5c0-2.9-2.8-5-6.6-5c-0.5,0-0.9,0-1.4,0.1l7-5.3
			C148.3,60.6,153.2,65.3,156.6,70.7z"/>
		<path class="st1" d="M113.4,54.6c0,1.2-1.3,2-3.2,2c-1.9,0-3.2-0.8-3.2-2c0-1.2,1.3-2,3.2-2C112.1,52.6,113.4,53.4,113.4,54.6z"/>
		<path class="st1" d="M46.1,37.3c0.6-0.6,1.6-0.5,1.7-0.5c0,0,1.1,0,1.9,1.3c0.6,1.1,0.9,3.3,1.2,4.8c-1.7,0-3.9,0-5.7,0
			c-0.1-0.4-0.1-0.7-0.1-0.7C44.8,39,45.6,37.8,46.1,37.3z"/>
		<path class="st1" d="M33.7,36.4c4.5,0.4,5.3,5.6,5.4,6.5c-15,0-31,0-32.3,0C4,42.9,4,40.2,4,40.2v-3.9l28.6,0
			C32.6,36.3,33.2,36.3,33.7,36.4z"/>
		<polygon class="st1" points="93.8,82.6 71.3,65.1 70.9,58 103,82.6 		"/>
	</g>
	<g>
		<path class="st1" d="M60.7,75.7c-0.2-3-1.5-13.6-1.9-17.5c-0.4-3.7-0.8-6.6-0.5-8.2c0.2-1,0.7-1.4,1.4-1.4c1.8,0,2,2.6,2.7,8.7
			c0.5,4.8,3.1,27.3,3.1,27.3l-14.7,0c-0.1,0.9-0.1,1.8-0.1,2.7c0,10.5,5,19.7,13.6,26.5l7.4-5.6c-0.6,0.1-1.2,0.2-1.9,0.2
			c-3.9,0-6.5-2.1-6.5-4.6c0-2.5,2.5-4.6,6.5-4.6c3.9,0,6.5,2.1,6.5,4.6c0,0.4-0.1,0.7-0.2,1.1l26.7-20.3H87.2c0.7,0.6,1,1.5,1,2.4
			c0,2.2-2.1,3.8-5,3.8c-2.9,0-5-1.6-5-3.8c0-0.9,0.4-1.8,1-2.4h-7.7c-0.2-2.7-4-43-4.4-46.7c-0.3-2.9-1.9-3.8-1.9-3.8L52.4,24
			c0,2.2-2.1,3.8-5,3.8c-2.9,0-5-1.6-5-3.8c0-2.2,2.1-3.8,5-3.8L33,9.3c-10.3,6.1-17,15-18.5,25.5h7.4c-1.5-0.8-2.3-2.1-2.3-3.6
			c0-2.5,2.5-4.6,6.5-4.6c3.9,0,6.5,2.1,6.5,4.6c0,1.5-0.8,2.8-2.3,3.6h2.5c0,0,3.1-0.1,5.1,1.7c1.8,1.7,2.4,3.6,2.7,5.3
			c0.6,3.1,5.1,39.6,5.5,42.7h-3.3c-1.4,0-2.5,1.1-2.5,2.4c0,0.1,0,0.2,0,0.3c0,12.5,5.8,24,16.2,32.5l6.5-4.9
			c-8.8-7.1-14-16.6-14-27.6c0-0.9,0-1.8,0.1-2.7l-5.4-42.1c-0.4-3,0.3-6.9,3.7-7.3c1.5-0.2,3.2,0.8,4.1,2.7c0.7,1.5,0.9,3.7,1.1,5
			c0,0,3.9,30.4,4.1,32.7c0.3,2.4,0,7.3,2.8,6.9C62,82.1,60.9,78.6,60.7,75.7z"/>
	</g>
</g>
<text transform="matrix(1 0 0 1 -31.0705 -140.2855)" style="font-family:'ArialRoundedMTBold'; font-size:50px; letter-spacing:-1;">Inclusive Design Journal</text>
<g>
	<path d="M184.4,48.1h3.2v31.8h-3.2V48.1z"/>
	<path d="M192.6,56.4h3v4.2c1.2-1.6,2.6-2.8,4-3.6c1.5-0.8,3.1-1.2,4.8-1.2c1.8,0,3.3,0.4,4.7,1.3c1.4,0.9,2.4,2.1,3,3.6
		c0.6,1.5,1,3.9,1,7.1v12.1h-3V68.7c0-2.7-0.1-4.5-0.3-5.4c-0.4-1.6-1-2.7-2-3.5c-1-0.8-2.3-1.2-3.9-1.2c-1.8,0-3.5,0.6-4.9,1.8
		c-1.4,1.2-2.4,2.7-2.9,4.5c-0.3,1.2-0.4,3.3-0.4,6.4v8.6h-3V56.4z"/>
	<path d="M240.7,61.3l-2.4,1.5c-2.1-2.8-4.9-4.1-8.5-4.1c-2.9,0-5.2,0.9-7.1,2.8c-1.9,1.8-2.8,4.1-2.8,6.7c0,1.7,0.4,3.3,1.3,4.8
		c0.9,1.5,2.1,2.7,3.6,3.5c1.5,0.8,3.2,1.3,5.1,1.3c3.5,0,6.3-1.4,8.5-4.1l2.4,1.6c-1.1,1.7-2.6,3-4.5,3.9c-1.9,0.9-4.1,1.4-6.5,1.4
		c-3.7,0-6.8-1.2-9.3-3.5c-2.5-2.4-3.7-5.2-3.7-8.6c0-2.3,0.6-4.4,1.7-6.3c1.1-2,2.7-3.5,4.7-4.6c2-1.1,4.2-1.6,6.7-1.6
		c1.6,0,3.1,0.2,4.5,0.7c1.5,0.5,2.7,1.1,3.7,1.9C239.1,59.1,240,60.1,240.7,61.3z"/>
	<path d="M245.1,47.3h3v32.6h-3V47.3z"/>
	<path d="M253.2,56.4h3v11c0,2.7,0.1,4.5,0.4,5.5c0.4,1.4,1.3,2.6,2.5,3.4c1.2,0.8,2.7,1.3,4.4,1.3s3.1-0.4,4.3-1.2
		c1.2-0.8,2-1.9,2.4-3.2c0.3-0.9,0.5-2.8,0.5-5.8v-11h3.1v11.6c0,3.2-0.4,5.7-1.1,7.3c-0.8,1.6-1.9,2.9-3.4,3.9
		c-1.5,0.9-3.4,1.4-5.7,1.4c-2.3,0-4.2-0.5-5.7-1.4c-1.5-0.9-2.7-2.2-3.4-3.9c-0.8-1.7-1.1-4.2-1.1-7.5V56.4z"/>
	<path d="M290.6,58.9l-1.9,2c-1.6-1.6-3.2-2.4-4.7-2.4c-1,0-1.8,0.3-2.5,1c-0.7,0.6-1.1,1.4-1.1,2.3c0,0.8,0.3,1.5,0.9,2.2
		c0.6,0.7,1.8,1.5,3.6,2.5c2.3,1.2,3.8,2.3,4.6,3.4c0.8,1.1,1.2,2.3,1.2,3.7c0,1.9-0.7,3.6-2,4.9c-1.4,1.3-3.1,2-5.1,2
		c-1.4,0-2.7-0.3-3.9-0.9c-1.2-0.6-2.3-1.4-3.1-2.4l1.9-2.2c1.5,1.7,3.2,2.6,4.9,2.6c1.2,0,2.2-0.4,3.1-1.2c0.9-0.8,1.3-1.7,1.3-2.7
		c0-0.9-0.3-1.6-0.8-2.3c-0.6-0.7-1.8-1.5-3.8-2.5c-2.1-1.1-3.6-2.2-4.3-3.2c-0.8-1.1-1.1-2.3-1.1-3.7c0-1.8,0.6-3.3,1.8-4.5
		c1.2-1.2,2.8-1.8,4.6-1.8C286.2,55.8,288.4,56.8,290.6,58.9z"/>
	<path d="M296.1,46.7c0.7,0,1.3,0.2,1.8,0.7c0.5,0.5,0.7,1.1,0.7,1.8c0,0.7-0.2,1.3-0.7,1.8c-0.5,0.5-1.1,0.7-1.8,0.7
		c-0.7,0-1.3-0.2-1.7-0.7c-0.5-0.5-0.7-1.1-0.7-1.8c0-0.7,0.2-1.3,0.7-1.8C294.8,46.9,295.4,46.7,296.1,46.7z M294.6,56.4h3v23.5h-3
		V56.4z"/>
	<path d="M300.8,56.4h3.2l7.9,17.2l7.8-17.2h3.2l-10.8,23.5h-0.6L300.8,56.4z"/>
	<path d="M343,72.1l2.6,1.3c-0.8,1.6-1.8,3-2.9,4c-1.1,1-2.3,1.8-3.7,2.3c-1.4,0.5-2.9,0.8-4.7,0.8c-3.8,0-6.8-1.3-9-3.8
		c-2.2-2.5-3.2-5.4-3.2-8.5c0-3,0.9-5.6,2.8-8c2.3-3,5.4-4.5,9.3-4.5c4,0,7.2,1.5,9.6,4.6c1.7,2.1,2.6,4.8,2.6,8h-21.2
		c0.1,2.7,0.9,5,2.6,6.7c1.7,1.7,3.8,2.6,6.3,2.6c1.2,0,2.4-0.2,3.5-0.6c1.1-0.4,2.1-1,2.9-1.7C341.2,74.7,342.1,73.6,343,72.1z
		 M343,65.8c-0.4-1.6-1-2.9-1.8-3.9c-0.8-1-1.8-1.7-3.1-2.3c-1.3-0.6-2.6-0.9-4-0.9c-2.3,0-4.3,0.7-6,2.2c-1.2,1.1-2.1,2.7-2.8,4.9
		H343z"/>
	<path d="M362.9,79.9V48.1h6.6c4.8,0,8.2,0.4,10.4,1.1c3.1,1.1,5.5,3,7.2,5.6c1.7,2.7,2.6,5.8,2.6,9.5c0,3.2-0.7,6-2.1,8.4
		c-1.4,2.4-3.2,4.2-5.4,5.4c-2.2,1.2-5.3,1.7-9.2,1.7H362.9z M366,76.9h3.7c4.4,0,7.4-0.3,9.2-0.8c2.4-0.8,4.3-2.2,5.6-4.2
		c1.4-2,2.1-4.5,2.1-7.4c0-3.1-0.7-5.7-2.2-7.9c-1.5-2.2-3.6-3.7-6.2-4.5c-2-0.6-5.3-0.9-9.8-0.9H366V76.9z"/>
	<path d="M413.5,72.1l2.6,1.3c-0.8,1.6-1.8,3-2.9,4c-1.1,1-2.3,1.8-3.7,2.3c-1.4,0.5-2.9,0.8-4.7,0.8c-3.8,0-6.8-1.3-9-3.8
		c-2.2-2.5-3.2-5.4-3.2-8.5c0-3,0.9-5.6,2.8-8c2.3-3,5.4-4.5,9.3-4.5c4,0,7.2,1.5,9.6,4.6c1.7,2.1,2.6,4.8,2.6,8h-21.2
		c0.1,2.7,0.9,5,2.6,6.7c1.7,1.7,3.8,2.6,6.3,2.6c1.2,0,2.4-0.2,3.5-0.6c1.1-0.4,2.1-1,2.9-1.7C411.7,74.7,412.5,73.6,413.5,72.1z
		 M413.5,65.8c-0.4-1.6-1-2.9-1.8-3.9c-0.8-1-1.8-1.7-3.1-2.3c-1.3-0.6-2.6-0.9-4-0.9c-2.3,0-4.3,0.7-6,2.2
		c-1.2,1.1-2.1,2.7-2.8,4.9H413.5z"/>
	<path d="M431.6,58.9l-1.9,2c-1.6-1.6-3.2-2.4-4.7-2.4c-1,0-1.8,0.3-2.5,1c-0.7,0.6-1.1,1.4-1.1,2.3c0,0.8,0.3,1.5,0.9,2.2
		c0.6,0.7,1.8,1.5,3.6,2.5c2.3,1.2,3.8,2.3,4.6,3.4c0.8,1.1,1.2,2.3,1.2,3.7c0,1.9-0.7,3.6-2,4.9c-1.4,1.3-3.1,2-5.1,2
		c-1.4,0-2.7-0.3-3.9-0.9c-1.2-0.6-2.3-1.4-3.1-2.4l1.9-2.2c1.5,1.7,3.2,2.6,4.9,2.6c1.2,0,2.2-0.4,3.1-1.2c0.9-0.8,1.3-1.7,1.3-2.7
		c0-0.9-0.3-1.6-0.8-2.3c-0.6-0.7-1.8-1.5-3.8-2.5c-2.1-1.1-3.6-2.2-4.3-3.2c-0.8-1.1-1.1-2.3-1.1-3.7c0-1.8,0.6-3.3,1.8-4.5
		c1.2-1.2,2.8-1.8,4.6-1.8C427.2,55.8,429.4,56.8,431.6,58.9z"/>
	<path d="M437.1,46.7c0.7,0,1.3,0.2,1.8,0.7c0.5,0.5,0.7,1.1,0.7,1.8c0,0.7-0.2,1.3-0.7,1.8c-0.5,0.5-1.1,0.7-1.8,0.7
		c-0.7,0-1.3-0.2-1.7-0.7c-0.5-0.5-0.7-1.1-0.7-1.8c0-0.7,0.2-1.3,0.7-1.8C435.9,46.9,436.5,46.7,437.1,46.7z M435.6,56.4h3v23.5h-3
		V56.4z"/>
	<path d="M463.5,56.4h3v18.8c0,3.3-0.3,5.7-0.9,7.2c-0.8,2.2-2.2,3.8-4.1,5c-2,1.2-4.3,1.8-7.1,1.8c-2,0-3.8-0.3-5.4-0.9
		c-1.6-0.6-2.9-1.3-3.9-2.3c-1-1-1.9-2.4-2.8-4.2h3.3c0.9,1.6,2.1,2.7,3.5,3.5c1.4,0.7,3.2,1.1,5.3,1.1c2.1,0,3.8-0.4,5.2-1.2
		c1.4-0.8,2.4-1.7,3-2.9c0.6-1.2,0.9-3,0.9-5.6v-1.2c-1.1,1.4-2.5,2.5-4.2,3.3c-1.6,0.8-3.4,1.2-5.2,1.2c-2.2,0-4.2-0.5-6.1-1.6
		c-1.9-1.1-3.4-2.5-4.4-4.3c-1-1.8-1.6-3.8-1.6-6c0-2.2,0.5-4.2,1.6-6.1c1.1-1.9,2.6-3.4,4.5-4.5c1.9-1.1,3.9-1.6,6.1-1.6
		c1.8,0,3.4,0.4,4.9,1.1c1.5,0.7,3,1.9,4.4,3.6V56.4z M454.6,58.7c-1.7,0-3.3,0.4-4.8,1.2c-1.5,0.8-2.6,2-3.5,3.4
		c-0.8,1.5-1.3,3-1.3,4.7c0,2.6,0.9,4.7,2.6,6.4c1.7,1.7,4,2.5,6.7,2.5c2.8,0,5-0.8,6.7-2.5c1.7-1.7,2.5-3.9,2.5-6.6
		c0-1.8-0.4-3.4-1.2-4.7c-0.8-1.4-1.9-2.5-3.3-3.3C457.7,59.1,456.2,58.7,454.6,58.7z"/>
	<path d="M471.2,56.4h3v4.2c1.2-1.6,2.6-2.8,4-3.6c1.5-0.8,3.1-1.2,4.8-1.2c1.8,0,3.3,0.4,4.7,1.3c1.4,0.9,2.4,2.1,3,3.6
		c0.6,1.5,1,3.9,1,7.1v12.1h-3V68.7c0-2.7-0.1-4.5-0.3-5.4c-0.4-1.6-1-2.7-2-3.5c-1-0.8-2.3-1.2-3.9-1.2c-1.8,0-3.5,0.6-4.9,1.8
		c-1.4,1.2-2.4,2.7-2.9,4.5c-0.3,1.2-0.4,3.3-0.4,6.4v8.6h-3V56.4z"/>
	<path d="M195.3,94.2h3.2v21.5c0,3.3-0.3,5.6-0.8,6.9c-0.5,1.3-1.4,2.3-2.6,3.1c-1.2,0.8-2.6,1.2-4.3,1.2c-1.3,0-2.5-0.2-3.8-0.7
		c-1.2-0.5-2.6-1.4-4.1-2.6l1.7-2.5c1.7,1.2,3,2,4.1,2.5c0.7,0.3,1.4,0.5,2.1,0.5c0.9,0,1.7-0.3,2.5-0.8c0.7-0.5,1.3-1.3,1.6-2.2
		c0.3-0.9,0.4-2.7,0.4-5.3V94.2z"/>
	<path d="M214.2,101.8c3.6,0,6.6,1.3,9,3.9c2.2,2.4,3.3,5.2,3.3,8.5c0,3.3-1.1,6.2-3.4,8.6c-2.3,2.5-5.2,3.7-8.8,3.7
		c-3.6,0-6.6-1.2-8.9-3.7c-2.3-2.5-3.4-5.3-3.4-8.6c0-3.3,1.1-6.1,3.3-8.5C207.5,103.2,210.5,101.8,214.2,101.8z M214.2,104.8
		c-2.5,0-4.7,0.9-6.5,2.8c-1.8,1.9-2.7,4.1-2.7,6.7c0,1.7,0.4,3.3,1.2,4.8s1.9,2.6,3.3,3.4c1.4,0.8,2.9,1.2,4.6,1.2s3.2-0.4,4.6-1.2
		c1.4-0.8,2.5-1.9,3.3-3.4c0.8-1.5,1.2-3.1,1.2-4.8c0-2.6-0.9-4.9-2.7-6.7C218.8,105.7,216.7,104.8,214.2,104.8z"/>
	<path d="M229.9,102.4h3v11c0,2.7,0.1,4.5,0.4,5.5c0.4,1.4,1.3,2.6,2.5,3.4c1.2,0.8,2.7,1.3,4.4,1.3c1.7,0,3.1-0.4,4.3-1.2
		c1.2-0.8,2-1.9,2.4-3.2c0.3-0.9,0.5-2.8,0.5-5.8v-11h3.1V114c0,3.2-0.4,5.7-1.1,7.3c-0.8,1.6-1.9,2.9-3.4,3.9
		c-1.5,0.9-3.4,1.4-5.7,1.4s-4.2-0.5-5.7-1.4c-1.5-0.9-2.7-2.2-3.4-3.9c-0.8-1.7-1.1-4.2-1.1-7.5V102.4z"/>
	<path d="M255.2,102.4h3.1v3.4c0.9-1.4,1.9-2.4,2.9-3c1-0.7,2.1-1,3.2-1c0.8,0,1.7,0.3,2.7,0.8l-1.6,2.6c-0.6-0.3-1.2-0.4-1.6-0.4
		c-1,0-2,0.4-2.9,1.2c-0.9,0.8-1.7,2.1-2.1,3.9c-0.4,1.3-0.6,4.1-0.6,8.1v8h-3.1V102.4z"/>
	<path d="M269.6,102.4h3v4.2c1.2-1.6,2.6-2.8,4-3.6c1.5-0.8,3.1-1.2,4.8-1.2c1.8,0,3.3,0.4,4.7,1.3c1.4,0.9,2.4,2.1,3,3.6
		c0.6,1.5,1,3.9,1,7.1V126h-3v-11.2c0-2.7-0.1-4.5-0.3-5.4c-0.4-1.6-1-2.7-2-3.5c-1-0.8-2.3-1.2-3.9-1.2c-1.8,0-3.5,0.6-4.9,1.8
		s-2.4,2.7-2.9,4.5c-0.3,1.2-0.4,3.3-0.4,6.4v8.6h-3V102.4z"/>
	<path d="M318.3,102.4V126h-3v-4c-1.3,1.5-2.7,2.7-4.3,3.5c-1.6,0.8-3.3,1.2-5.2,1.2c-3.3,0-6.2-1.2-8.5-3.6
		c-2.4-2.4-3.5-5.4-3.5-8.8c0-3.4,1.2-6.3,3.6-8.7c2.4-2.4,5.2-3.6,8.6-3.6c1.9,0,3.7,0.4,5.2,1.2c1.6,0.8,2.9,2.1,4.1,3.7v-4.3
		H318.3z M306.2,104.8c-1.7,0-3.2,0.4-4.7,1.2c-1.4,0.8-2.6,2-3.4,3.5c-0.8,1.5-1.3,3.1-1.3,4.8c0,1.7,0.4,3.2,1.3,4.8
		c0.8,1.5,2,2.7,3.4,3.5c1.4,0.8,3,1.3,4.6,1.3c1.7,0,3.2-0.4,4.7-1.3c1.5-0.8,2.6-2,3.4-3.4c0.8-1.4,1.2-3,1.2-4.8
		c0-2.7-0.9-5-2.7-6.8C311.1,105.7,308.8,104.8,306.2,104.8z"/>
	<path d="M323.8,93.4h3V126h-3V93.4z"/>
</g>
<text transform="matrix(1 0 0 1 173.7051 226.3067)"><tspan x="0" y="0" style="font-family:'CenturyGothic'; font-size:50px; letter-spacing:-2;">In</tspan><tspan x="37.8" y="0" style="font-family:'CenturyGothic'; font-size:50px; letter-spacing:-1;">cl</tspan><tspan x="78.2" y="0" style="font-family:'CenturyGothic'; font-size:50px; letter-spacing:-2;">u</tspan><tspan x="106.6" y="0" style="font-family:'CenturyGothic'; font-size:50px; letter-spacing:-1;">si</tspan><tspan x="134" y="0" style="font-family:'CenturyGothic'; font-size:50px; letter-spacing:-5;">v</tspan><tspan x="156.7" y="0" style="font-family:'CenturyGothic'; font-size:50px; letter-spacing:-1;">e </tspan><tspan x="201" y="0" style="font-family:'CenturyGothic'; font-size:50px; letter-spacing:-2;">D</tspan><tspan x="236.2" y="0" style="font-family:'CenturyGothic'; font-size:50px; letter-spacing:-3;">e</tspan><tspan x="265.7" y="0" style="font-family:'CenturyGothic'; font-size:50px; letter-spacing:-1;">s</tspan><tspan x="284.1" y="0" style="font-family:'CenturyGothic'; font-size:50px; letter-spacing:-2;">ig</tspan><tspan x="323.8" y="0" style="font-family:'CenturyGothic'; font-size:50px; letter-spacing:-1;">n </tspan><tspan x="0" y="60" style="font-family:'CenturyGothic'; font-size:50px; letter-spacing:-3;">J</tspan><tspan x="21.1" y="60" style="font-family:'CenturyGothic'; font-size:50px; letter-spacing:-2;">o</tspan><tspan x="51.8" y="60" style="font-family:'CenturyGothic'; font-size:50px; letter-spacing:-1;">u</tspan><tspan x="81.2" y="60" style="font-family:'CenturyGothic'; font-size:50px;">r</tspan><tspan x="96.3" y="60" style="font-family:'CenturyGothic'; font-size:50px; letter-spacing:-2;">n</tspan><tspan x="124.8" y="60" style="font-family:'CenturyGothic'; font-size:50px; letter-spacing:-1;">al</tspan></text>
<g>
	<g>
		<path d="M272.5-232.6c-0.1,3.4,0.4,6.9-0.2,10.3c-0.1,0.7,0,1.1,0.8,1c2.1-0.1,4.2,0.3,6.3-0.2c6.3-1.4,10-6.7,9.3-13.2
			c-0.7-7.1-5.3-11.4-12-11.4c-3.5,0-7,0-10.5,0c-1.3,0-2.5,0.3-3.7,0.8c-3.5,1.5-4.4,5.2-2.2,8.2c0.4,0.6,1,1.1,1.5,1.7
			c0.7,0.8,0.9,1.7,0.2,2.5c-0.8,0.9-1.7,0.7-2.6,0.1c-3.3-1.9-4.9-6.9-3.6-10.5c1.5-3.8,4.6-5.8,8.4-6.1c5.6-0.4,11.2-0.6,16.8,0.2
			c3.2,0.5,5.7,2.2,7.8,4.7c6.8,8.1,4.2,21.2-4.9,25.5c-1.7,0.8-3.6,1.3-5.5,1.3c-4,0.1-8,0-11.9,0c-1.3,0-2.4-0.2-2.4-1.8
			c0-1.5,1.1-1.9,2.4-1.8c2.1,0.2,2.5-1.1,2.5-2.7c0-5.3,0-10.7,0-16c0-0.6,0-1.2,0-1.8c0-1.1,0.3-2,1.6-2.1c1.4-0.1,2,0.8,2,2
			C272.5-238.8,272.5-235.7,272.5-232.6z"/>
		<path d="M358.4-220.6c-1,0.2-1.4,0.9-1.9,1.4c-4.6,3.9-11,1.8-12.3-4.1c-1.5-6.5,2-13.4,7.7-15.1c1.2-0.4,2.4-0.5,3.6-0.1
			c1.5,0.5,2.8,1.6,4.6,0c1-0.9,2.2,0.5,2.2,2c0,3.1,0,6.2,0,9.3c0,3.8,0.1,7.7,0,11.5c-0.1,3.9-1.5,7.2-5.1,9
			c-3.9,1.9-7.7,1.2-11.3-1.1c-1-0.6-2-1.4-1.2-2.8c0.8-1.3,2-1.1,3.1-0.3c0.6,0.4,1.3,0.8,2,1.1c4.5,1.9,8.2-0.3,8.7-5.2
			C358.5-216.8,358.4-218.6,358.4-220.6z M358.4-228.6c0-3.5-1.3-5.9-3.5-6.4c-2.3-0.6-4.9,1-6.2,3.8c-0.9,1.9-1.3,3.8-1,5.9
			c0.2,1.8,0.8,3.4,2.7,4.2c1.8,0.8,3.4,0.3,4.9-0.8C357.6-223.7,358.2-226.3,358.4-228.6z"/>
		<path d="M420.4-230.2c0,3.9,0.2,7.5-0.3,11.1c-0.5,3.8-1.9,7.1-5.8,8.5c-4,1.4-7.6,0.5-10.6-2.4c-0.8-0.8-2-1.8-0.8-3.1
			c1.1-1.2,2.2-0.5,3.2,0.3c1.1,1,2.3,2,3.8,2.2c3.2,0.5,6-1.4,6.3-4.8c0.8-7.4,1-14.8-0.1-22.2c-0.7-5-4.4-7.1-8.6-5.4
			c-3.9,1.5-5.1,6-2.5,9.3c0.3,0.4,0.7,0.8,1,1.2c0.7,0.8,1.1,1.6,0.3,2.5c-0.8,0.9-1.8,0.7-2.7,0.1c-4.3-3-5.1-9.5-1.6-13.4
			c3.2-3.5,7.2-4.5,11.6-3.1c4.3,1.3,5.9,4.8,6.5,8.9C420.6-237,420.4-233.5,420.4-230.2z"/>
		<path d="M97.1-230.6c0,2.6,0.2,5.3,0,7.9c-0.5,4.6-4,6.6-8.3,4.9c-0.7-0.3-1.3-0.7-1.8-1.3c-0.5-0.7-0.8-1.4-0.3-2.2
			c0.5-0.8,1.4-0.9,2.2-0.7c0.6,0.2,1.2,0.6,1.8,0.9c1.1,0.5,2,0.1,2.4-1.1c0.2-0.7,0.4-1.5,0.4-2.2c0-5,0.3-10-0.3-14.9
			c-0.1-1-0.3-2-0.6-3c-0.8-2.6-2.6-4.1-5.1-4.2c-2.7-0.2-5,0.8-6.3,3.2c-1.2,2.3-1.1,4.7,0.8,6.7c0.1,0.1,0.2,0.3,0.4,0.5
			c0.9,1,1.9,2,0.5,3.2c-1.3,1.2-2.4,0-3.3-0.8c-3.2-3.1-3.9-7.4-1.8-11.3c2-3.6,6.9-5.8,11.1-4.9c4.6,1,7.5,4.3,8,9.2
			c0.1,1,0.3,2,0.3,3C97.2-235.3,97.2-232.9,97.1-230.6C97.1-230.6,97.1-230.6,97.1-230.6z"/>
		<path d="M521.6-238.7c0.8,0.1,1.5,0.1,2.2,0.5c1.2,0.7,2.3,1.2,3.7-0.1c1-0.9,2.4,0.2,2.5,2c0.1,3.2,0,6.5,0,9.7
			c0,1.1,0,2.2,0,3.2c0.1,2.2,0.2,2.3,2.3,1.6c0.8-0.3,1.3,0,1.8,0.6c0.5,0.7,0.4,1.4-0.1,2.1c-0.9,1.2-2.1,1.9-3.6,1.8
			c-1.5,0-2.9-0.6-3.4-2.1c-0.6-1.6-1.1-1.4-2.1-0.3c-2.2,2.3-4.9,3-7.9,2.1c-3.1-0.9-4.5-3.3-5.1-6.2c-1.3-6.3,2.3-13,7.8-14.5
			C520.2-238.5,520.9-238.6,521.6-238.7z M526.1-229c0-0.5,0-0.9-0.1-1.3c-0.2-2.1-1.1-3.8-3.2-4.6c-2.1-0.8-3.8,0.2-5.2,1.8
			c-2,2.3-2.8,5.1-2.3,8.1c0.3,1.8,1.1,3.4,3,4c1.9,0.6,3.6,0,5-1.3C525.4-224.2,526.1-226.5,526.1-229z"/>
		<path d="M305.8-238.6c1.9-0.1,3.6,0.4,5.2,1.3c2.5,1.4,3.8,3.9,3.3,6.6c-0.4,2.6-2.5,4.6-5.5,5.2c-2.1,0.4-4.2,0.2-6.1-0.7
			c-1-0.5-1.7-1.2-1.3-2.4c0.4-1.1,1.4-1.2,2.4-0.9c1.2,0.3,2.4,0.8,3.7,0.7c1.5-0.1,2.7-0.7,3-2.3c0.3-1.5-0.5-2.6-1.8-3.3
			c-1.6-0.8-3.4-0.8-5.1-0.3c-2.9,1-4.3,3.2-4.5,6.1c-0.3,2.9,0.7,5.4,3.3,6.9c2.5,1.5,5,1.2,7.4-0.5c0.3-0.2,0.6-0.5,1-0.7
			c0.8-0.6,1.5-0.9,2.3-0.1c0.9,0.9,0.7,1.8,0,2.7c-2.4,3-8.2,4-12.1,2c-4.4-2.3-6.5-7.4-5.3-12.6
			C296.8-235.6,300.8-238.6,305.8-238.6z"/>
		<path d="M223.5-228.1c0-7.7,6.7-12.5,14-10c3.1,1.1,5.1,3.6,5,6.4c-0.1,2.9-2.3,5.4-5.6,6.1c-2.1,0.5-4.2,0.2-6.1-0.7
			c-1-0.4-1.8-1.1-1.4-2.4c0.4-1.3,1.5-1.3,2.5-1c1.2,0.3,2.3,0.8,3.5,0.7c1.6-0.1,2.8-0.8,3.1-2.4c0.3-1.7-0.8-2.7-2.1-3.3
			c-2.9-1.4-6.7-0.2-8.3,2.6c-1.8,3.1-1.3,7.3,1.1,9.5c2.5,2.3,5.7,2.2,9-0.1c1-0.7,1.9-1.5,2.9-0.2c0.9,1.2,0.2,2.2-0.7,3
			c-3.1,2.7-6.8,3.3-10.6,1.9c-3.9-1.4-6-4.4-6.5-8.5C223.5-227,223.5-227.5,223.5-228.1z"/>
		<path d="M445.7-227.9c0,6-4.8,10.6-10.9,10.6c-5.9,0-10.7-4.8-10.8-10.6c0-5.9,4.9-10.7,10.9-10.7
			C441-238.6,445.7-233.9,445.7-227.9z M441.9-227.9c0-4-3.1-7.2-6.9-7.2c-4,0-7.2,3.2-7.2,7.2c0,3.9,3.1,7.1,7.1,7.1
			C438.8-220.8,441.9-223.9,441.9-227.9z"/>
		<path d="M170.3-221.2c-1.6,1.8-3.2,3-5.3,3.6c-4,1.1-7.5-0.9-8-5c-0.5-4.6-0.2-9.3-0.1-13.9c0-1.2,0.6-2.1,2-2
			c1.4,0.1,1.7,1.1,1.7,2.3c0,3.5,0,7,0,10.5c0,1.9-0.1,3.9,2.2,4.8c1.5,0.6,4.1-0.4,5.5-2.2c1.5-1.9,2.1-4.1,2.1-6.4
			c0.1-2.2,0-4.4,0-6.7c0-1.3,0.3-2.4,1.8-2.4c1.5,0,1.9,1.1,1.9,2.4c0,4.3,0,8.6,0,12.9c0,1.4-0.1,3,2.1,1.6
			c0.7-0.5,1.3-0.1,1.8,0.4c0.6,0.6,0.5,1.4,0.1,2c-0.9,1.4-2.3,2.1-4,2c-1.5-0.1-2.7-0.8-3.3-2.2
			C170.7-220,170.6-220.4,170.3-221.2z"/>
		<path d="M105.6-234.6c1.7-1.9,3.3-3.2,5.4-3.7c4.2-1.1,7.9,1.4,8.1,5.7c0.1,3.2,0,6.3,0.1,9.5c0,1.4,0,2.8,2.1,1.6
			c0.6-0.3,1.5-0.3,2,0.5c0.6,0.8,0.2,1.6-0.4,2.2c-1.2,1.4-2.8,1.9-4.6,1.4c-1.9-0.5-2.7-2-2.8-3.8c-0.1-2.6-0.1-5.1-0.1-7.7
			c0-0.5,0-1.1,0-1.6c0-1.7,0.1-3.5-1.9-4.3c-1.9-0.7-3.6,0.1-5,1.3c-2.6,2.2-2.7,5.3-2.9,8.3c-0.1,1.8,0,3.6,0,5.5
			c0,1.3-0.3,2.4-1.8,2.4c-1.5,0-1.9-1.1-1.9-2.4c0-5.5,0-10.9,0-16.4c0-1.2,0.4-2.4,1.8-2.4c1.7,0,1.9,1.2,1.9,2.5
			C105.4-235.7,105.5-235.4,105.6-234.6z"/>
		<path d="M370.9-234.8c1.6-1.5,2.9-2.8,4.8-3.4c4.7-1.4,8.5,1.1,8.6,6.1c0.1,3.1,0,6.2,0,9.3c0,1.3,0.1,2.4,1.9,1.4
			c0.7-0.4,1.6-0.4,2.2,0.5c0.5,0.8,0.1,1.6-0.5,2.2c-1.3,1.4-2.8,1.8-4.6,1.3c-1.9-0.6-2.7-2-2.8-3.8c-0.1-2.6-0.1-5.3-0.1-7.9
			c0-0.9,0-1.9,0-2.8c-0.2-2.4-1.9-3.6-4.3-2.9c-3.2,0.9-4.6,3.3-5.2,6.4c-0.5,2.7-0.4,5.5-0.4,8.3c0,1.4,0.1,3-1.9,2.9
			c-1.7,0-1.9-1.5-1.9-2.8c0-5.2,0-10.4,0-15.6c0-1.3,0.2-2.8,1.9-2.8c1.8,0,1.8,1.4,1.8,2.8C370.8-235.5,370.9-235.3,370.9-234.8z"
			/>
		<path d="M492.9-234.9c1.9-2.4,4.3-3.6,7.1-3.7c3.4-0.1,5.9,2.3,6,5.7c0.1,3.1,0,6.2,0.1,9.3c0,1.5-0.1,3.2,2.4,2
			c0.6-0.3,1.4-0.1,1.8,0.6c0.4,0.7,0.2,1.5-0.3,2.1c-1.2,1.3-2.6,1.9-4.4,1.5c-1.6-0.3-2.6-1.3-3-3c-0.6-2.8-0.2-5.6-0.3-8.5
			c0-0.8,0-1.6,0-2.4c-0.1-3.5-2.3-4.8-5.4-3.3c-3,1.5-3.9,4.3-4.2,7.4c-0.2,2.4-0.1,4.7-0.1,7.1c0,1.3-0.2,2.6-1.8,2.6
			c-1.8,0-2-1.3-2-2.7c0-5.1,0-10.3,0-15.4c0-1.4-0.1-3,1.7-3.1c2.1-0.1,2,1.6,2.1,3C492.6-235.4,492.7-235.3,492.9-234.9z"/>
		<path d="M449.1-229.7c0-2.2,0-4.3,0-6.5c0-1.2,0.3-2.4,1.8-2.4c1.6,0,2,1.2,2,2.5c0,3.7,0,7.4,0,11.1c0,3.8,2.4,5.2,5.8,3.3
			c2.6-1.4,3.6-3.9,3.8-6.7c0.2-2.1,0.1-4.2,0.1-6.3c0-0.6,0-1.2,0-1.8c0.1-1.2,0.5-2.2,1.9-2.1c1.4,0,1.8,0.9,1.8,2.2
			c0,3.9,0,7.8,0,11.7c0,0.8,0.1,1.6,0.2,2.4c0.1,1,0.5,1.6,1.6,0.8c0.9-0.6,1.8-0.7,2.4,0.3c0.6,1,0.1,1.8-0.6,2.5
			c-2,2.1-5.6,1.6-6.7-1.1c-0.7-1.5-1.1-1.1-1.9-0.2c-1.6,1.6-3.5,2.5-5.8,2.6c-3.6,0.2-6.2-2.3-6.4-5.9
			C449.1-225.3,449.1-227.5,449.1-229.7z"/>
		<path d="M133.7-217.3c-3.6-0.2-7.1-2.3-9-6.6c-1.8-4.2-1-8.2,2.1-11.5c2.9-3.2,6.8-4.1,10.9-2.8c3.4,1.1,5.3,3.9,4.8,7
			c-0.2,1.3-0.7,2.3-1.7,3.1c-0.8,0.7-1.8,1.1-2.7,0.3c-0.9-0.8-0.6-1.6,0-2.5c1.2-2.1,0.7-3.5-1.6-4.4c-2.8-1.1-6.1,0-7.7,2.7
			c-1.9,3-1.3,7.1,1.4,9.4c2.5,2.2,6,2.4,8.8,0.6c0.5-0.3,0.9-0.6,1.3-1c0.8-0.6,1.6-0.7,2.3,0.1c0.8,0.9,0.5,1.7-0.2,2.5
			C141-218.6,137.7-217.3,133.7-217.3z"/>
		<path d="M536.3-236.8c0.2-4.1-0.3-9.1,0.3-14.1c0.3-2.9,2-4.2,4.8-3.9c1.1,0.1,1.8,0.5,1.9,1.6c0.1,1-0.5,1.7-1.5,1.8
			c-1.4,0.1-1.5,1.1-1.5,2.1c0,8.8,0,17.5,0,26.3c0,1.3,0.1,2.5,1.9,1.3c0.7-0.5,1.4-0.3,2,0.3c0.6,0.6,0.5,1.4,0,2.1
			c-1,1.6-2.6,2.1-4.4,1.9c-1.9-0.3-2.9-1.6-3.2-3.4c-0.5-3.1-0.3-6.3-0.3-9.5C536.3-232.2,536.3-234.1,536.3-236.8z"/>
		<path d="M151.4-254.8c1.1-0.1,2.2,0.2,2.4,1.5c0.2,1.2-0.6,1.9-1.8,2c-1.1,0.1-1.3,0.8-1.3,1.7c0,9,0,18.1,0,27.1
			c0,1.4,0.6,1.9,1.9,1c0.8-0.6,1.6-0.3,2.1,0.4c0.6,0.7,0.3,1.4-0.2,2.1c-1,1.4-2.4,2-4,1.8c-1.6-0.2-2.8-1.1-3.3-2.6
			c-0.3-0.7-0.3-1.6-0.3-2.4c0-9.1,0-18.2,0-27.3c0-0.5,0-0.9,0.1-1.4C147.3-253.6,148.8-254.9,151.4-254.8z"/>
		<path d="M187.1-238.6c1.9,0.1,4.1,1.1,5.7,3.1c0.6,0.8,0.9,1.7,0,2.5c-0.9,0.9-1.7,0.6-2.5-0.1c-0.9-0.8-1.7-1.5-2.9-1.8
			c-1.7-0.4-3.2-0.2-4,1.4c-0.9,1.6-0.2,3,1.3,4c1.6,1.1,3.2,2,4.7,3.1c2.7,2,3.4,5.1,1.7,7.2c-2,2.4-6.5,2.7-8.8,0.6
			c-0.9-0.8-1.5-1.9-0.6-3c0.9-1.1,1.9-0.7,2.8,0.1c0.4,0.3,0.9,0.6,1.4,0.7c0.8,0.2,1.7,0.2,2.1-0.7c0.4-0.8,0-1.4-0.5-2
			c-0.7-0.8-1.7-1.3-2.6-1.8c-0.7-0.4-1.4-0.8-2.1-1.2c-3-1.9-4.1-4.4-3.3-7.1C180.4-236.6,183.3-238.7,187.1-238.6z"/>
		<path d="M324.9-238.6c1.8,0.1,4,0.8,5.5,2.7c0.7,0.9,1.3,1.8,0.3,2.9c-1,1.1-1.9,0.5-2.8-0.3c-1.1-1-2.4-1.8-4-1.7
			c-1.5,0-2.4,0.7-2.9,2.1c-0.5,1.3,0,2.4,1.1,3.2c1,0.8,2.1,1.4,3.2,2.1c1,0.6,2,1.2,2.8,2c2.3,2.4,2.4,5.2,0.3,7.1
			c-2.5,2.1-7.1,1.8-8.8-0.6c-0.6-0.9-0.7-1.8,0.1-2.6c0.7-0.7,1.6-0.6,2.4-0.1c0.4,0.3,0.8,0.7,1.3,0.9c0.9,0.3,1.9,0.4,2.6-0.5
			c0.6-0.9,0-1.7-0.7-2.3c-0.9-0.7-1.9-1.2-2.9-1.8c-0.6-0.4-1.3-0.7-1.9-1.2c-2.9-2-3.9-4.2-3.1-7
			C318.4-236.7,321.2-238.7,324.9-238.6z"/>
		<path d="M205.8-238.6c1,0.1,1.5,1,1.9,2c1.5,3.5,3,7.1,4.5,10.6c0.2,0.5,0.2,1.2,0.9,1.2c0.7,0,0.7-0.7,0.9-1.2
			c1.6-3.6,3.1-7.2,4.6-10.8c0.3-0.7,0.6-1.5,1.5-1.8c0.7-0.2,1.3,0,1.8,0.6c0.7,0.7,0.3,1.5,0,2.3c-1.9,4.5-3.9,8.9-5.8,13.4
			c-0.6,1.3-1.1,2.6-1.7,3.9c-0.8,1.5-2,1.5-2.6,0c-2.6-5.8-5.2-11.7-7.7-17.6C203.5-237.5,204.3-238.7,205.8-238.6z"/>
		<path d="M476.9-234.7c2-2.4,3.9-4,6.8-3.9c1.2,0,2.1,0.4,2.7,1.4c0.5,0.9,0.7,1.8-0.1,2.6c-0.8,0.9-1.7,0.9-2.5,0.2
			c-1.8-1.4-3.2-0.5-4.4,0.9c-1.9,2.2-2.7,4.8-2.7,7.7c0,2.1,0,4.2,0,6.3c0,1.2-0.5,2.2-1.8,2.2c-1.5,0-1.9-1-1.9-2.3
			c0-5.4,0-10.8,0-16.2c0-1.4,0.2-2.7,1.9-2.7c1.6,0,1.8,1.3,1.8,2.6C476.8-235.7,476.8-235.4,476.9-234.7z"/>
		<path d="M196.7-229.1c0-2.4,0-4.8,0-7.3c0-1.2,0.2-2.2,1.7-2.2c1.5,0,2,0.9,2,2.2c0,4.3,0,8.6,0,12.9c0,2.4,0,2.4,2.3,1.8
			c0.8-0.2,1.3,0,1.8,0.6c0.5,0.7,0.4,1.4-0.1,2c-1.2,1.6-2.8,2.1-4.6,1.7c-1.8-0.4-2.9-1.8-3-3.6
			C196.7-223.7,196.8-226.4,196.7-229.1C196.8-229.1,196.8-229.1,196.7-229.1z"/>
		<path d="M334.6-228.5c0-3.1,0-5.4,0-7.8c0-1.3,0.4-2.3,1.9-2.3c1.6,0,1.8,1.1,1.8,2.3c0,4.2,0,8.5,0,12.7c0,2.3,0.2,2.4,2.3,1.8
			c0.8-0.2,1.3,0,1.8,0.6c0.5,0.7,0.4,1.4-0.1,2.1c-1.1,1.4-2.5,2-4.3,1.7c-1.7-0.3-2.8-1.3-3.2-3
			C334.2-223.3,334.7-226.3,334.6-228.5z"/>
		<path d="M339.4-245.4c-0.2,1.5-1.1,2.4-2.6,2.5c-1.5,0.1-2.7-1.2-2.6-2.7c0.2-1.5,1.1-2.5,2.7-2.4
			C338.3-247.8,339.2-246.9,339.4-245.4z"/>
		<path d="M199.1-247.9c1.3,0.2,2.3,1,2.2,2.6c0,1.6-1,2.5-2.6,2.5c-1.6,0-2.5-1-2.5-2.6C196.2-246.9,197.4-248,199.1-247.9z"/>
	</g>
</g>
</svg>
